# xmcd CD database file
#
# Track frame offsets:
#	150
#	48431
#	63496
#	92387
#	106522
#	119250
#	153411
#	158156
#	170348
#	197407
#	200425
#	225807
#	244860
#
# Disc length: 3891 seconds
#
# Revision: 0
# Processed by: cddbd v1.5.2PL0 Copyright (c) Steve Scherf et al.
# Submitted via: CDex 1.75
#
DISCID=930f310d
DTITLE=Christian McBride - The Movement Revisited:  A Musical Portrait of Four Icons
DYEAR=2020
DGENRE=Jazz
TTITLE0=Overture/The Movement Revisited
TTITLE1=Sister Rosa - Prologue
TTITLE2=Sister Rosa
TTITLE3=Rosa Introduces Malcolm
TTITLE4=Brother Malcolm - Prologue
TTITLE5=Brother Malcolm
TTITLE6=Malcolm Introduces Ali
TTITLE7=Ali Speaks
TTITLE8=Rumble in the Jungle
TTITLE9=Rosa Introduces MLK
TTITLE10=Soldiers (I Have a Dream)
TTITLE11=A View from the Mountaintop
TTITLE12=Apotheosis: November 4th, 2008
EXTD=YEAR: 2020
EXTT0=
EXTT1=
EXTT2=
EXTT3=
EXTT4=
EXTT5=
EXTT6=
EXTT7=
EXTT8=
EXTT9=
EXTT10=
EXTT11=
EXTT12=
PLAYORDER=
